<?xml version="1.0" encoding="UTF-8"?>
<svg id="Layer_2" data-name="Layer 2" xmlns="http://www.w3.org/2000/svg" xmlns:xlink="http://www.w3.org/1999/xlink" viewBox="0 0 1001 1001">
  <defs>
    <style>
      .cls-1 {
        fill: #181818;
        stroke: #231f20;
        stroke-miterlimit: 10;
      }

      .cls-2 {
        fill: #f7f6f2;
      }

      .cls-2, .cls-3 {
        stroke-width: 0px;
      }

      .cls-4 {
        mask: url(#mask);
      }

      .cls-5 {
        filter: url(#luminosity-invert-noclip);
      }

      .cls-3 {
        fill: #f7f6f2;
      }
    </style>
    <filter id="luminosity-invert-noclip" x="-43.15" y="0" width="1105.65" height="1117.73" color-interpolation-filters="sRGB" filterUnits="userSpaceOnUse">
      <feColorMatrix result="cm" values="-1 0 0 0 1 0 -1 0 0 1 0 0 -1 0 1 0 0 0 1 0"/>
      <feFlood flood-color="#fff" result="bg"/>
      <feBlend in="cm" in2="bg"/>
    </filter>
    <mask id="mask" x="-43.15" y="0" width="1105.65" height="1117.73" maskUnits="userSpaceOnUse">
      <g class="cls-5">
        <g>
          <path class="cls-2" d="M353.75,1053.47c-42.43,42.84-98.07,64.26-166.95,64.26s-124.33-21.42-166.32-64.26c-42.43-43.25-63.63-100.8-63.63-172.62s21.2-129.36,63.63-172.62c41.99-42.84,97.43-64.26,166.32-64.26s124.52,21.42,166.95,64.26c41.99,42.43,63,99.96,63,172.62s-21.01,130.2-63,172.62ZM121.28,973.46c15.12,21.42,36.95,32.13,65.52,32.13s50.61-10.71,66.15-32.13c15.12-21,22.68-52.07,22.68-93.24s-7.67-71.08-23-92.3c-15.34-21.2-37.28-31.81-65.83-31.81s-50.51,10.61-65.83,31.81c-15.34,21.21-22.99,51.98-22.99,92.3s7.77,72.67,23.31,93.24Z"/>
          <path class="cls-2" d="M881.69,825.41l41.58-170.73h139.23l-129.78,448.56h-136.08l-50.4-264.6-47.25,264.6h-139.86l-129.78-448.56h138.6l42.21,170.73,20.16,115.92,18.27-115.29,34.65-171.36h124.74l37.8,171.36,17.64,112.77,18.27-113.4Z"/>
        </g>
      </g>
    </mask>
  </defs>
  <g id="Layer_2-2" data-name="Layer 2">
    <rect class="cls-3" x=".5" y=".5" width="1000" height="1000" rx="200" ry="200"/>
    <g class="cls-4">
      <rect class="cls-1" x=".5" y=".5" width="1000" height="1000" rx="200" ry="200"/>
    </g>
  </g>
</svg>